<?xml version="1.0" standalone="no"?>
<!DOCTYPE svg PUBLIC "-//W3C//DTD SVG 20010904//EN"
 "http://www.w3.org/TR/2001/REC-SVG-20010904/DTD/svg10.dtd">
<svg version="1.0" xmlns="http://www.w3.org/2000/svg"
 width="2008.000000pt" height="1668.000000pt" viewBox="0 0 2008.000000 1668.000000"
 preserveAspectRatio="xMidYMid meet">

<g transform="translate(0.000000,1668.000000) scale(0.100000,-0.100000)"
fill="#000000" stroke="none">
<path d="M0 9209 l0 -7470 23 3 22 3 0 1370 c0 1311 -1 1372 -18 1399 -17 26
-17 29 -2 46 14 16 16 48 16 257 0 131 0 389 1 573 2 421 3 2981 2 3470 -1
201 -1 604 -1 895 1 292 1 863 1 1270 -1 833 -1 1777 0 3065 0 481 -1 913 -2
960 -2 47 0 433 3 858 l6 772 -25 0 -26 0 0 -7471z"/>
<path d="M9068 15458 c-18 -22 -17 -35 1 -23 15 8 34 45 24 45 -4 0 -16 -10
-25 -22z"/>
<path d="M9007 15392 c-20 -22 -21 -32 -6 -32 12 0 38 29 39 43 0 13 -17 7
-33 -11z"/>
<path d="M8910 15250 c-25 -39 -51 -77 -57 -85 -7 -7 -13 -19 -13 -25 0 -7
-11 -25 -25 -42 -14 -16 -25 -36 -25 -43 0 -7 -3 -15 -7 -17 -12 -5 -90 -123
-98 -147 -4 -12 -2 -21 4 -21 6 0 11 4 11 8 0 5 9 18 20 30 11 12 25 32 30 44
6 13 21 41 35 63 13 22 30 51 37 65 7 14 18 31 25 38 7 7 13 17 13 22 0 5 6
15 13 22 7 7 26 36 42 63 16 28 35 56 42 63 7 7 13 18 13 23 0 23 -19 4 -60
-61z"/>
<path d="M8650 14834 c0 -8 5 -12 10 -9 6 3 10 10 10 16 0 5 -4 9 -10 9 -5 0
-10 -7 -10 -16z"/>
<path d="M8612 14776 c-7 -16 -8 -26 -1 -26 12 0 22 25 17 41 -2 6 -9 0 -16
-15z"/>
<path d="M8582 14720 c0 -14 2 -19 5 -12 2 6 2 18 0 25 -3 6 -5 1 -5 -13z"/>
<path d="M11719 14533 c-1 -5 -2 -12 -4 -18 -1 -5 -3 -18 -3 -27 -2 -18 -42
-26 -42 -9 0 18 -50 -2 -56 -23 -4 -11 -13 -28 -21 -36 -12 -13 -36 -49 -113
-170 -33 -53 -271 -398 -321 -465 -16 -22 -36 -53 -44 -70 -9 -16 -33 -55 -55
-85 -60 -82 -129 -181 -211 -300 -186 -272 -254 -353 -318 -379 -36 -16 -41
-45 -13 -82 11 -13 37 -56 60 -95 23 -40 76 -123 119 -185 72 -107 326 -488
348 -522 6 -9 31 -46 56 -84 99 -147 225 -337 244 -368 11 -19 38 -61 60 -95
22 -33 72 -109 110 -168 39 -60 103 -158 143 -219 39 -61 72 -114 72 -118 0
-4 13 -24 30 -45 16 -20 34 -49 39 -64 6 -14 15 -26 21 -26 5 0 10 -5 10 -12
0 -10 44 -82 60 -98 11 -11 60 -86 60 -92 0 -11 230 -357 242 -364 5 -3 17 1
27 10 10 9 21 16 25 16 6 0 84 57 136 100 63 53 74 60 90 60 10 0 35 16 56 35
21 19 48 35 60 35 13 0 25 8 29 18 5 17 31 34 150 95 19 10 35 22 35 27 0 5
13 11 30 15 16 4 33 12 37 18 14 21 72 57 91 57 11 0 27 11 36 25 10 16 26 25
41 25 14 0 25 4 25 8 0 5 15 16 33 25 17 10 46 26 62 37 27 18 58 33 93 45 6
2 12 9 12 14 0 6 16 13 35 17 19 3 39 12 46 20 6 8 19 14 28 14 9 1 34 9 56
20 22 11 49 20 60 20 11 0 31 7 44 14 47 26 69 -6 31 -44 -12 -12 -33 -20 -54
-20 -18 0 -45 -9 -59 -20 -14 -11 -39 -20 -55 -20 -17 0 -32 -6 -36 -15 -3 -8
-38 -31 -78 -50 -40 -19 -86 -44 -103 -55 -16 -11 -43 -26 -60 -34 -16 -8 -48
-28 -71 -44 -22 -16 -51 -33 -65 -37 -13 -4 -33 -15 -44 -25 -11 -10 -35 -25
-54 -35 -19 -10 -56 -33 -83 -51 -26 -19 -51 -34 -55 -34 -4 0 -23 -11 -42
-24 -36 -24 -109 -72 -140 -91 -9 -5 -27 -18 -40 -27 -13 -10 -32 -18 -42 -18
-10 0 -22 -6 -26 -13 -4 -6 -28 -26 -53 -42 -25 -17 -56 -40 -70 -52 -14 -13
-40 -30 -58 -39 -67 -31 -66 -32 171 -384 62 -91 97 -144 201 -300 64 -96 122
-184 130 -195 7 -11 39 -58 69 -105 31 -47 76 -114 102 -150 25 -36 62 -90 82
-120 20 -30 39 -57 42 -60 7 -5 111 -162 279 -420 41 -63 87 -133 101 -155 14
-22 29 -42 32 -45 4 -3 123 -2 265 1 237 6 1201 -6 1319 -16 28 -2 102 -5 165
-6 110 -2 -98 -8 -785 -23 -751 -15 -734 -14 -723 -71 6 -29 -3 -37 -59 -54
-32 -9 -43 -17 -43 -32 0 -21 37 -97 79 -164 28 -44 33 -52 81 -140 18 -33 41
-71 52 -84 10 -13 18 -27 18 -31 0 -14 79 -125 110 -155 l31 -30 922 0 c507 0
934 3 950 8 15 4 27 13 27 20 0 7 -12 18 -27 24 -25 9 -26 11 -9 18 11 5 44 3
76 -3 31 -7 81 -12 112 -12 46 0 62 5 88 26 70 59 76 127 14 165 -31 19 -46
21 -143 17 -95 -3 -112 -6 -144 -28 -21 -15 -39 -36 -43 -52 -3 -15 -10 -30
-15 -34 -10 -6 -11 -4 -29 76 -7 30 -25 73 -40 95 -28 43 -150 288 -150 303 0
5 -9 17 -20 27 -12 11 -20 31 -20 51 0 40 -38 73 -84 75 -18 1 -23 3 -11 5
136 27 122 19 156 92 17 37 43 94 58 127 16 33 41 89 56 125 15 36 43 98 61
138 19 41 34 76 34 78 0 16 134 288 161 326 11 14 19 31 19 36 0 6 -44 75 -97
154 -53 78 -119 177 -147 218 -28 41 -71 101 -97 132 -26 31 -64 83 -85 115
-20 32 -42 63 -48 68 -6 6 -34 44 -61 85 -27 41 -53 80 -58 85 -39 52 -68 93
-101 147 -22 35 -46 67 -53 71 -7 4 -13 14 -13 22 0 7 -8 21 -17 31 -18 18
-32 40 -55 84 -7 14 -16 27 -20 30 -13 10 -56 78 -63 99 -3 12 -10 21 -15 21
-5 0 -15 12 -22 28 -27 52 -43 77 -55 85 -7 4 -13 13 -13 18 0 9 -56 97 -69
109 -3 3 -10 12 -16 21 -5 9 -19 29 -29 45 -125 186 -215 321 -230 347 -11 18
-26 36 -33 40 -7 4 -13 12 -13 18 0 5 -17 33 -37 62 -20 28 -47 66 -58 84 -12
17 -36 49 -53 71 -18 22 -32 42 -32 46 0 3 -32 45 -71 93 -39 48 -77 103 -85
121 -22 51 -38 52 -109 9 -42 -26 -81 -52 -93 -64 -7 -7 -16 -13 -20 -13 -4 0
-26 -18 -50 -40 -24 -22 -47 -40 -53 -40 -6 0 -25 -15 -44 -32 -19 -18 -43
-42 -55 -53 -66 -63 -130 -149 -130 -177 0 -8 -7 -21 -15 -28 -8 -7 -15 -25
-15 -40 0 -47 -12 -92 -27 -97 -27 -10 -38 16 -35 83 4 79 35 144 93 194 22
19 71 64 108 100 38 36 90 83 115 105 26 22 64 57 86 78 21 20 42 37 47 37 4
0 14 9 21 20 7 11 18 20 25 20 18 1 67 47 67 63 0 8 -7 20 -15 27 -8 7 -15 18
-15 25 0 6 -9 20 -20 30 -11 10 -20 22 -20 26 0 9 -43 77 -63 99 -8 8 -17 23
-20 33 -4 9 -11 17 -17 17 -5 0 -10 6 -10 13 0 8 -10 22 -21 33 -12 10 -25 29
-30 42 -5 12 -15 22 -24 22 -10 0 -15 10 -15 28 -1 26 -1 26 -15 8 -16 -21
-18 -18 -15 31 1 23 -4 35 -19 43 -12 6 -21 17 -21 25 0 20 -17 19 -28 -1 -5
-9 -14 -14 -21 -10 -14 9 -15 36 -1 36 6 0 10 11 10 25 0 16 -6 25 -15 25 -9
0 -18 12 -21 30 -4 17 -12 30 -19 30 -7 0 -16 11 -19 25 -4 14 -13 25 -21 25
-9 0 -15 10 -15 25 0 14 -8 29 -20 35 -11 6 -20 15 -20 21 0 6 -16 30 -35 53
-19 24 -35 48 -35 54 0 6 -8 17 -17 24 -10 7 -24 25 -32 41 -8 15 -18 27 -23
27 -4 0 -8 9 -8 20 0 11 -4 20 -9 20 -4 0 -25 27 -46 60 -21 33 -41 60 -45 60
-4 0 -13 13 -19 28 -7 16 -25 43 -41 60 -16 17 -32 41 -35 53 -4 12 -12 18
-21 15 -9 -3 -14 1 -14 12 0 10 -10 32 -22 49 -13 17 -30 41 -38 54 -8 12 -23
31 -32 41 -10 10 -18 25 -18 33 0 8 -9 23 -20 32 -11 10 -20 22 -20 27 0 5 -7
16 -15 25 -8 9 -23 26 -34 38 -11 12 -23 34 -27 48 -3 14 -12 25 -20 25 -8 0
-14 7 -14 15 0 8 -11 25 -25 37 -14 12 -25 28 -25 35 0 22 -18 14 -22 -9 -2
-13 -7 -23 -13 -23 -5 0 -11 10 -13 23 -2 12 1 22 7 22 19 0 12 45 -9 58 -11
7 -20 21 -20 31 0 11 -9 23 -20 26 -11 3 -20 15 -20 25 0 20 -17 36 -28 26 -3
-4 -1 -20 5 -36 12 -32 3 -39 -27 -20 -13 8 -13 13 2 40 13 23 15 37 8 56 -12
30 -30 23 -30 -12 0 -15 -6 -24 -15 -24 -8 0 -15 9 -15 19 0 11 -16 36 -35 57
-19 20 -35 45 -35 55 0 13 -7 19 -24 19 -23 0 -24 -2 -14 -31 6 -16 7 -33 4
-37 -11 -10 -77 -2 -97 12 -17 11 -15 13 16 25 30 11 33 14 23 31 -7 11 -14
17 -17 15 -2 -3 -10 0 -18 6 -8 7 -13 8 -13 1 0 -5 -7 -12 -15 -16 -26 -9 -15
52 12 69 39 26 27 36 -40 34 -34 -1 -72 3 -84 9 -12 7 -33 12 -47 12 -21 0
-26 5 -26 25 0 20 5 25 24 25 14 0 28 5 31 10 3 6 1 10 -4 10 -6 0 -11 7 -11
16 0 14 -8 16 -61 10 -41 -5 -65 -3 -75 5 -11 9 -14 8 -14 -9 0 -11 6 -22 13
-25 6 -2 8 -8 4 -13 -4 -4 -17 -3 -27 4 -11 6 -25 9 -33 6 -8 -3 -20 2 -27 11
-7 8 -19 15 -26 15 -8 0 -14 10 -14 24 0 13 -6 29 -14 35 -18 15 -46 3 -46
-21 0 -11 -4 -16 -11 -13 -6 4 -8 13 -5 21 3 8 -1 14 -9 14 -12 0 -13 4 -3 19
9 15 9 23 -2 36 -12 14 -16 13 -40 -10 -33 -31 -40 -31 -40 0 0 26 -18 33 -37
14 -8 -8 -15 -6 -25 10 -7 11 -21 21 -30 21 -10 0 -18 5 -18 10 0 6 -9 10 -20
10 -11 0 -20 3 -20 8 0 4 -11 20 -25 35 -19 20 -22 27 -10 27 18 0 19 13 5 41
-11 19 -29 26 -31 12z m543 -395 c-8 -8 -12 -9 -12 -1 0 6 -3 20 -6 30 -7 17
-6 17 12 1 14 -14 16 -20 6 -30z m98 -63 c0 -8 -4 -15 -10 -15 -5 0 -10 7 -10
15 0 8 5 15 10 15 6 0 10 -7 10 -15z m340 -190 c16 -19 14 -20 -27 -28 -19 -4
-33 -2 -33 3 0 6 7 10 15 10 8 0 14 3 14 8 -4 26 12 30 31 7z m170 -150 c0 -8
-4 -15 -9 -15 -13 0 -22 16 -14 24 11 11 23 6 23 -9z m2127 -3097 c-3 -8 -6
-5 -6 6 -1 11 2 17 5 13 3 -3 4 -12 1 -19z m73 -103 c0 -8 -4 -15 -9 -15 -5 0
-11 7 -15 15 -3 9 0 15 9 15 8 0 15 -7 15 -15z"/>
<path d="M12361 14504 c0 -11 3 -14 6 -6 3 7 2 16 -1 19 -3 4 -6 -2 -5 -13z"/>
<path d="M8422 14475 c-10 -21 -9 -25 3 -25 9 0 15 10 15 25 0 14 -2 25 -3 25
-2 0 -9 -11 -15 -25z"/>
<path d="M11890 14420 c0 -5 9 -10 21 -10 11 0 17 5 14 10 -3 6 -13 10 -21 10
-8 0 -14 -4 -14 -10z"/>
<path d="M12140 14380 c0 -5 7 -7 15 -4 8 4 15 8 15 10 0 2 -7 4 -15 4 -8 0
-15 -4 -15 -10z"/>
<path d="M12470 14340 c0 -11 4 -20 9 -20 5 0 7 9 4 20 -3 11 -7 20 -9 20 -2
0 -4 -9 -4 -20z"/>
<path d="M8316 14311 c-4 -7 -5 -15 -2 -18 9 -9 19 4 14 18 -4 11 -6 11 -12 0z"/>
<path d="M12507 14290 c3 -11 7 -20 9 -20 2 0 4 9 4 20 0 11 -4 20 -9 20 -5 0
-7 -9 -4 -20z"/>
<path d="M8283 14256 c-35 -47 -131 -187 -168 -245 -10 -17 -23 -31 -27 -31
-4 0 -8 -7 -8 -14 0 -16 -54 -101 -71 -111 -5 -4 -9 -15 -9 -26 0 -10 -7 -19
-15 -19 -8 0 -15 -5 -15 -12 0 -6 -30 -56 -67 -110 -38 -54 -76 -112 -85 -130
-9 -17 -21 -34 -26 -37 -5 -3 -12 -16 -16 -28 -15 -49 14 -19 79 82 38 58 72
105 76 105 3 0 13 15 20 33 7 17 17 37 21 42 4 6 18 24 31 40 13 17 34 48 47
70 13 22 40 60 60 85 31 38 98 144 142 225 14 26 24 44 43 78 19 33 13 35 -12
3z"/>
<path d="M12540 14231 c0 -12 5 -21 10 -21 6 0 10 6 10 14 0 8 -4 18 -10 21
-5 3 -10 -3 -10 -14z"/>
<path d="M12476 14224 c-4 -10 -1 -14 6 -12 15 5 23 28 10 28 -5 0 -13 -7 -16
-16z"/>
<path d="M12370 14190 c-8 -5 -12 -12 -9 -15 4 -3 12 1 19 10 14 17 11 19 -10
5z"/>
<path d="M12582 14180 c0 -14 2 -19 5 -12 2 6 2 18 0 25 -3 6 -5 1 -5 -13z"/>
<path d="M12620 14124 c0 -11 -5 -25 -11 -31 -9 -9 -6 -10 10 -6 29 7 32 15
15 38 -14 19 -14 19 -14 -1z"/>
<path d="M12650 14070 c0 -11 7 -20 15 -20 17 0 18 2 9 24 -9 23 -24 20 -24
-4z"/>
<path d="M12690 14010 c0 -11 7 -20 15 -20 17 0 18 2 9 24 -9 23 -24 20 -24
-4z"/>
<path d="M12730 13955 c0 -16 6 -25 15 -25 8 0 15 9 15 19 0 10 -7 21 -15 25
-11 4 -15 -1 -15 -19z"/>
<path d="M7716 13405 c-8 -8 -18 -24 -21 -35 -3 -11 -10 -20 -14 -20 -4 0 -13
-11 -19 -25 -18 -39 5 -30 31 13 48 76 57 100 23 67z"/>
<path d="M7632 13278 c-6 -6 -12 -16 -12 -21 0 -5 -18 -31 -40 -57 -22 -26
-40 -52 -40 -58 0 -5 -15 -26 -34 -47 -19 -20 -40 -50 -46 -66 -7 -16 -16 -29
-21 -29 -5 0 -9 -7 -9 -15 0 -22 60 47 124 145 30 47 65 97 76 113 23 29 24
57 2 35z"/>
<path d="M7402 12948 c-14 -14 -16 -42 -3 -34 7 5 23 46 17 46 -1 0 -7 -5 -14
-12z"/>
<path d="M7352 12879 c-14 -22 -10 -35 6 -25 12 7 23 46 13 46 -3 0 -12 -9
-19 -21z"/>
<path d="M7303 12810 c-35 -39 -63 -77 -63 -86 0 -4 -15 -25 -33 -48 -19 -23
-36 -51 -40 -64 -10 -39 25 -22 48 23 12 23 29 50 39 60 9 11 31 41 48 67 34
55 35 88 1 48z"/>
<path d="M7129 12558 c-7 -13 -18 -29 -26 -36 -13 -14 -18 -32 -7 -32 9 0 47
50 56 72 10 26 -9 22 -23 -4z"/>
<path d="M6832 12105 c-29 -37 -52 -72 -52 -77 0 -4 -16 -31 -35 -58 -19 -27
-35 -52 -35 -55 0 -3 -26 -45 -58 -93 -32 -48 -91 -136 -132 -197 -40 -60
-121 -182 -180 -270 -126 -187 -344 -520 -386 -587 -16 -26 -59 -91 -95 -145
-36 -54 -79 -118 -95 -142 -16 -24 -49 -74 -74 -110 -24 -36 -51 -78 -60 -93
-8 -15 -42 -67 -75 -115 -33 -48 -62 -92 -64 -98 -2 -5 -18 -32 -36 -60 -68
-105 -110 -171 -120 -186 -17 -28 -90 -134 -95 -139 -13 -13 -50 -70 -50 -78
0 -4 -8 -17 -17 -28 -10 -11 -22 -27 -28 -36 -27 -42 -90 -134 -96 -138 -11
-9 -17 -50 -9 -55 5 -3 14 5 21 17 7 13 26 41 43 63 39 50 53 72 71 112 8 17
18 33 22 35 8 3 121 168 136 198 4 8 27 42 52 75 25 33 50 72 56 88 6 15 15
27 20 27 5 0 15 16 23 35 8 19 20 35 25 35 6 0 11 5 11 10 0 6 16 33 35 60 19
27 35 54 35 58 0 5 9 17 20 27 11 10 22 27 26 38 4 11 10 25 15 31 55 69 96
129 210 306 41 63 79 122 84 131 6 8 46 69 90 134 44 64 100 150 125 190 25
41 53 82 63 93 9 10 17 23 17 29 0 5 24 41 53 79 28 38 57 77 62 86 16 27 223
330 255 373 16 22 35 51 42 65 7 14 32 53 55 87 24 34 43 64 43 67 0 3 20 37
44 75 54 83 99 177 94 193 -3 7 -28 -19 -56 -57z"/>
<path d="M18604 10043 c-4 -14 -7 -43 -8 -62 -1 -30 3 -37 22 -39 l23 -4 -25
-25 c-14 -14 -27 -34 -27 -44 -1 -11 -2 -23 -3 -28 -1 -4 14 -20 31 -35 l32
-27 21 33 c11 18 20 42 20 54 0 15 11 25 41 37 52 20 47 41 -10 44 -54 2 -71
17 -71 58 0 19 -3 40 -6 49 -10 25 -33 19 -40 -11z"/>
<path d="M18517 9933 c-3 -5 -2 -15 3 -23 5 -7 4 -21 -3 -31 -12 -20 5 -49 29
-49 21 0 13 104 -8 108 -9 2 -19 -1 -21 -5z"/>
<path d="M4998 9315 c-6 -14 -15 -25 -19 -25 -4 0 -10 -13 -14 -30 -4 -16 -13
-30 -21 -30 -7 0 -16 -11 -20 -25 -3 -14 -10 -25 -16 -25 -5 0 -16 -15 -24
-32 -14 -32 -71 -117 -100 -149 -8 -8 -14 -21 -14 -27 0 -20 22 -13 27 8 3 11
9 20 13 20 4 0 24 27 45 60 21 33 41 60 45 60 4 0 11 11 14 25 4 14 10 25 15
25 5 0 14 14 21 30 7 17 16 30 21 30 5 0 9 5 9 11 0 6 11 24 25 41 26 30 33
58 15 58 -6 0 -16 -11 -22 -25z"/>
<path d="M10837 9050 c-45 -49 -69 -87 -137 -215 -29 -55 -58 -107 -64 -115
-11 -15 -18 -27 -58 -99 -11 -20 -31 -50 -44 -68 -13 -17 -24 -36 -24 -41 0
-4 -21 -35 -46 -68 -25 -32 -65 -90 -88 -127 -22 -37 -53 -87 -68 -110 -15
-23 -31 -49 -35 -57 -5 -8 -39 -61 -76 -118 -38 -57 -102 -169 -144 -250 -41
-81 -84 -161 -94 -179 l-20 -32 23 -12 c18 -9 254 -11 1063 -6 572 4 1050 10
1063 13 12 3 22 11 22 18 -1 6 -35 54 -78 107 -144 181 -345 449 -467 624 -33
47 -64 92 -70 98 -5 7 -32 46 -60 87 -27 41 -53 77 -57 80 -8 6 -58 79 -58 85
0 6 -91 139 -99 145 -4 3 -29 40 -57 84 -71 113 -128 167 -195 183 -82 19 -93
17 -132 -27z"/>
<path d="M4748 8944 c-5 -4 -8 -16 -8 -28 0 -14 3 -17 11 -9 6 6 9 19 7 28 -1
9 -6 13 -10 9z"/>
<path d="M4700 8868 c-7 -16 -17 -28 -22 -28 -4 0 -8 -10 -8 -22 1 -22 1 -22
12 -3 6 11 18 25 26 31 8 6 12 19 10 30 -4 17 -6 16 -18 -8z"/>
<path d="M5933 7661 c-113 -6 -145 -12 -131 -27 11 -11 268 -8 279 3 13 13 4
34 -14 31 -7 -1 -67 -4 -134 -7z"/>
<path d="M5680 7587 c-27 -8 -30 -11 -15 -14 11 -2 30 -9 42 -15 25 -12 53 3
53 28 0 16 -30 17 -80 1z"/>
<path d="M5633 7514 c-8 -4 -9 -13 -4 -27 4 -12 7 -28 5 -35 -1 -7 0 -8 3 -2
3 6 16 15 29 20 32 13 33 50 2 49 -13 0 -28 -3 -35 -5z"/>
<path d="M5523 7443 c-39 -5 -43 -20 -7 -29 26 -7 31 -42 4 -36 -24 6 -60 -8
-60 -22 0 -7 7 -19 15 -26 24 -20 2 -28 -68 -29 -38 0 -63 -5 -68 -13 -10 -16
16 -38 44 -38 33 0 0 -28 -36 -32 -26 -2 -32 -8 -33 -28 -2 -45 -4 -47 -28
-45 -17 2 -30 -5 -41 -21 -8 -13 -23 -24 -33 -24 -29 -1 -57 -24 -60 -50 -2
-13 -30 -50 -64 -83 -37 -37 -57 -65 -54 -74 3 -8 -5 -24 -19 -37 -14 -13 -22
-26 -18 -30 4 -4 0 -4 -8 -1 -17 6 -139 -109 -139 -131 0 -17 -46 -45 -63 -38
-14 5 -47 -20 -47 -36 0 -10 25 -20 51 -20 31 0 22 -17 -12 -24 -42 -8 -59 -8
-58 2 1 4 1 19 0 35 -1 22 -6 27 -26 27 -22 0 -24 -3 -18 -31 4 -24 2 -34 -10
-41 -10 -5 -17 -19 -17 -30 0 -12 -8 -30 -17 -41 -17 -18 -17 -19 2 -33 10 -8
29 -14 42 -14 13 0 23 -4 23 -9 0 -5 -9 -7 -20 -4 -13 4 -29 -2 -43 -15 -41
-38 -65 -32 -81 20 -8 27 -35 11 -30 -18 3 -17 0 -24 -11 -24 -8 0 -15 7 -15
16 0 24 -50 68 -62 56 -7 -7 -3 -17 11 -31 12 -12 21 -25 21 -30 0 -5 6 -11
14 -14 8 -3 17 -20 21 -37 4 -17 13 -34 21 -37 8 -3 14 -11 14 -18 0 -6 9 -20
20 -30 12 -10 29 -38 39 -61 25 -55 49 -68 79 -44 12 10 22 22 22 27 0 5 19
28 43 50 23 22 47 46 52 54 12 16 99 125 168 210 26 32 47 61 47 66 0 4 13 21
29 38 15 16 59 75 96 130 38 55 75 108 83 118 8 9 20 26 26 36 18 31 114 165
131 182 8 9 15 20 15 25 0 6 16 25 35 44 19 19 35 39 35 46 0 7 16 29 35 48
19 20 35 39 35 41 0 3 20 30 45 61 47 57 56 88 29 98 -16 6 -23 6 -81 -1z
m-823 -908 c0 -8 -4 -15 -10 -15 -5 0 -10 7 -10 15 0 8 5 15 10 15 6 0 10 -7
10 -15z"/>
<path d="M3910 7289 c0 -11 4 -18 10 -14 5 3 7 12 3 20 -7 21 -13 19 -13 -6z"/>
<path d="M5828 7218 c-50 -65 -184 -237 -241 -311 -12 -15 -27 -33 -33 -40 -5
-7 -13 -19 -17 -27 -4 -8 -22 -35 -41 -60 -19 -25 -47 -63 -63 -85 -15 -22
-59 -82 -98 -132 -38 -51 -88 -118 -110 -148 -22 -31 -61 -84 -86 -118 -25
-34 -88 -120 -140 -192 -110 -152 -106 -147 -142 -187 -22 -23 -27 -36 -22
-57 6 -28 120 -258 161 -326 13 -22 29 -52 36 -67 7 -16 16 -28 20 -28 3 0 21
-28 38 -62 18 -35 38 -70 46 -79 8 -8 14 -18 14 -22 0 -9 147 -225 188 -274
18 -23 41 -45 51 -48 9 -2 25 -21 35 -40 11 -19 23 -35 27 -35 5 0 45 -36 89
-80 44 -44 87 -80 95 -80 8 0 15 -4 15 -9 0 -10 75 -61 91 -61 6 0 46 -16 88
-36 131 -62 175 -64 1311 -51 360 4 1148 10 1750 13 1086 6 1288 9 1298 19 3
3 -66 5 -154 5 -87 0 -206 2 -264 5 -58 2 -219 9 -358 15 -139 5 -258 12 -264
16 -5 4 2 14 17 24 19 12 49 18 108 19 76 2 110 11 94 27 -13 13 -101 24 -156
18 -44 -4 -61 -1 -70 10 -17 20 -6 36 25 36 14 0 23 4 20 8 -3 5 28 8 69 8 69
0 110 13 92 30 -3 3 -52 8 -109 10 -151 5 -171 8 -175 22 -3 8 9 12 39 12 49
0 68 13 68 47 0 16 6 23 20 23 11 0 20 -7 20 -15 0 -10 11 -15 35 -15 39 0 47
18 18 41 -13 11 -17 11 -20 2 -6 -17 -33 -17 -33 0 0 23 -34 49 -47 36 -22
-22 -33 3 -33 72 l0 69 -88 0 c-94 0 -112 8 -112 47 0 18 6 23 24 23 13 0 29
-6 35 -14 16 -19 121 -20 121 0 0 8 5 14 10 14 16 0 12 36 -6 50 -13 11 -16
10 -21 -8 -3 -12 -12 -22 -19 -22 -11 0 -14 18 -14 74 0 65 2 74 20 79 12 3
20 14 20 26 0 25 -26 37 -100 47 -53 7 -122 55 -100 69 7 4 22 -3 34 -14 20
-19 33 -22 100 -19 83 3 100 12 94 50 -4 32 -46 36 -76 7 l-23 -21 -80 81
c-43 44 -79 84 -79 88 0 15 53 34 64 23 14 -14 89 -13 104 2 23 23 21 24 -100
29 -46 2 -50 18 -5 21 83 5 143 6 597 13 267 4 492 9 500 11 46 15 -44 21
-338 23 -180 1 -401 5 -492 8 -91 3 -835 7 -1655 9 -1607 4 -1693 7 -1746 51
-24 21 -29 32 -29 69 0 53 41 123 74 126 11 1 363 2 781 2 1460 2 2330 7 2310
16 -11 5 -40 10 -65 11 -40 2 -41 3 -10 6 19 2 51 6 70 10 33 7 32 7 -25 15
-141 19 -399 34 -741 43 -91 3 -171 8 -178 13 -13 9 116 21 283 27 68 2 129 9
134 14 8 8 4 11 -12 11 -12 0 -19 4 -16 10 3 6 2 10 -4 10 -5 0 -13 -4 -16
-10 -8 -13 -78 -13 -91 0 -5 5 -52 13 -104 16 -52 4 -105 12 -117 20 -17 10
-23 11 -26 1 -3 -9 -9 -9 -26 1 -11 6 -35 12 -51 12 -18 0 -29 4 -25 10 3 6
19 10 36 10 32 0 39 19 13 41 -12 10 -20 10 -35 1 -15 -10 -25 -8 -53 8 -31
17 -42 18 -96 8 -45 -8 -65 -7 -73 1 -6 6 -22 11 -36 11 -38 1 -61 23 -61 59
0 35 -4 36 -43 19 -29 -14 -37 -38 -12 -38 8 0 15 -5 15 -11 0 -19 -53 0 -85
32 -31 29 -68 38 -80 19 -12 -20 -42 -9 -80 30 -40 41 -65 51 -65 25 0 -20 -9
-19 -32 2 -16 14 -23 15 -38 5 -23 -14 -70 -16 -70 -3 0 5 7 14 15 21 22 18
20 60 -3 60 -10 0 -23 -5 -29 -11 -6 -6 -21 -9 -34 -7 -18 2 -25 10 -27 33 -4
38 -18 53 -34 37 -14 -14 -50 -16 -63 -3 -6 5 -28 11 -50 13 -48 4 -58 29 -24
59 12 10 20 20 18 22 -35 21 -54 27 -79 27 -36 0 -41 26 -7 39 22 9 22 9 -6
20 -16 6 -51 11 -78 11 -42 0 -49 3 -49 20 0 16 7 20 35 20 19 0 35 4 35 8 0
36 -96 45 -120 12 -16 -23 -40 -27 -40 -7 0 17 -57 69 -95 87 -47 22 -95 71
-95 97 0 26 -3 28 -30 11 -16 -10 -24 -10 -40 0 -11 6 -27 12 -36 12 -9 0 -33
9 -53 19 -20 10 -50 25 -66 32 -25 12 -31 20 -32 51 -2 45 7 48 139 48 173 0
113 17 -85 24 -105 3 -217 8 -247 12 l-55 5 -57 -73z m262 -88 c0 -5 -7 -10
-15 -10 -8 0 -15 5 -15 10 0 6 7 10 15 10 8 0 15 -4 15 -10z m1777 -836 c-3
-3 -12 -4 -19 -1 -8 3 -5 6 6 6 11 1 17 -2 13 -5z m1133 -956 c0 -16 -3 -19
-11 -11 -6 6 -8 16 -5 22 11 17 16 13 16 -11z m0 -71 c0 -23 -22 -38 -37 -26
-18 15 -16 27 5 32 29 8 32 7 32 -6z m72 -224 c21 -19 25 -82 6 -101 -7 -7
-20 -12 -30 -12 -21 0 -38 32 -20 38 7 2 12 12 12 23 0 16 -7 19 -45 19 -33 0
-45 4 -45 15 0 8 9 15 19 15 11 0 23 5 26 10 10 16 57 12 77 -7z m22 -379 c27
-11 18 -22 -25 -29 -42 -7 -67 4 -55 24 8 12 55 15 80 5z"/>
<path d="M6430 7095 c0 -24 3 -25 55 -25 42 0 55 3 55 15 0 10 -10 15 -34 15
-19 0 -38 5 -41 10 -12 20 -35 10 -35 -15z"/>
<path d="M4060 7039 c0 -11 4 -18 10 -14 5 3 7 12 3 20 -7 21 -13 19 -13 -6z"/>
<path d="M6622 7014 c-11 -12 -11 -15 0 -19 19 -7 71 9 76 23 6 18 -60 14 -76
-4z"/>
<path d="M4097 6993 c-3 -5 -2 -15 2 -22 7 -10 10 -10 16 -1 4 6 3 16 -3 22
-5 5 -12 6 -15 1z"/>
<path d="M4170 6874 c0 -8 5 -12 10 -9 6 4 8 11 5 16 -9 14 -15 11 -15 -7z"/>
<path d="M4205 6840 c-3 -6 -3 -19 0 -30 5 -16 10 -18 26 -10 15 9 17 15 9 30
-12 22 -25 26 -35 10z"/>
<path d="M4240 6755 c0 -8 9 -19 20 -25 11 -6 20 -20 20 -31 0 -12 8 -23 20
-26 11 -3 20 -14 20 -24 0 -11 4 -19 9 -19 17 0 21 18 8 32 -8 7 -17 26 -21
41 -3 15 -13 27 -20 27 -8 0 -16 9 -19 20 -6 23 -37 27 -37 5z"/>
<path d="M4360 6586 c0 -15 7 -29 15 -32 8 -4 15 -14 15 -23 0 -18 18 -41 32
-41 4 0 8 12 8 26 0 17 -6 28 -19 31 -12 3 -21 15 -23 31 -4 35 -28 41 -28 8z"/>
<path d="M4446 6514 c-4 -11 -1 -14 11 -12 9 2 18 9 21 16 6 18 -25 15 -32 -4z"/>
<path d="M8970 6113 c0 -10 66 -10 76 0 4 4 -11 7 -34 7 -23 0 -42 -3 -42 -7z"/>
<path d="M9093 6113 c9 -2 23 -2 30 0 6 3 -1 5 -18 5 -16 0 -22 -2 -12 -5z"/>
<path d="M8978 6073 c12 -2 32 -2 45 0 12 2 2 4 -23 4 -25 0 -35 -2 -22 -4z"/>
<path d="M9098 6073 c6 -2 18 -2 25 0 6 3 1 5 -13 5 -14 0 -19 -2 -12 -5z"/>
<path d="M3601 4694 c0 -11 3 -14 6 -6 3 7 2 16 -1 19 -3 4 -6 -2 -5 -13z"/>
<path d="M3670 4592 c0 -11 7 -22 15 -26 9 -3 15 0 15 8 0 7 -7 19 -15 26 -12
10 -15 9 -15 -8z"/>
<path d="M3830 4496 c0 -7 -3 -27 -6 -45 -9 -43 18 -52 51 -17 30 32 31 44 8
62 -23 18 -53 18 -53 0z"/>
<path d="M2045 2580 c-3 -5 -15 -10 -26 -10 -11 0 -32 -12 -46 -26 -23 -23
-25 -31 -19 -80 3 -30 15 -71 26 -92 11 -20 20 -41 20 -47 0 -6 15 -40 34 -75
18 -36 37 -80 40 -97 4 -18 11 -35 16 -38 12 -7 60 -114 60 -132 0 -8 9 -26
20 -40 11 -14 20 -34 20 -44 0 -9 6 -30 14 -46 8 -15 29 -66 47 -113 18 -47
35 -89 39 -95 4 -5 10 -23 14 -38 4 -15 22 -61 41 -102 19 -41 35 -80 35 -87
0 -8 6 -22 13 -33 7 -11 23 -47 35 -80 13 -33 32 -78 43 -100 10 -22 19 -44
19 -50 1 -5 9 -28 20 -50 11 -22 19 -46 20 -53 0 -6 9 -29 20 -49 11 -21 20
-45 20 -53 0 -9 6 -24 14 -35 7 -11 17 -36 21 -55 4 -19 14 -44 21 -55 8 -11
14 -26 14 -35 1 -8 9 -33 20 -55 11 -22 19 -46 20 -54 0 -8 9 -32 19 -55 11
-23 30 -63 42 -91 45 -99 110 -155 181 -155 31 0 108 44 108 62 0 6 8 29 19
52 50 111 61 137 61 149 0 12 36 109 52 141 6 10 16 40 24 66 8 27 21 61 29
77 8 15 15 35 15 43 0 8 7 24 15 34 8 11 15 25 15 32 0 7 18 51 40 98 22 47
40 89 40 94 0 17 29 34 48 27 11 -3 24 -18 30 -33 41 -116 96 -253 112 -284
11 -20 20 -43 20 -50 0 -7 9 -30 20 -51 11 -20 20 -45 20 -54 0 -10 9 -31 20
-48 11 -16 20 -39 20 -51 0 -11 7 -29 15 -40 8 -10 15 -26 15 -34 0 -8 9 -32
20 -53 11 -20 20 -42 20 -48 0 -7 10 -32 22 -56 32 -64 92 -98 159 -90 65 8
84 31 139 171 24 61 52 130 62 153 10 23 18 46 18 51 0 8 20 58 50 127 5 11
21 52 36 90 15 39 35 89 45 112 11 23 19 45 19 48 0 3 16 40 35 81 19 41 35
77 35 80 0 3 18 43 40 90 22 47 40 88 40 91 0 3 12 31 26 62 14 31 31 70 39
86 23 53 97 209 106 225 5 8 12 22 16 30 3 8 22 49 41 90 19 41 48 109 64 150
17 41 34 80 38 85 15 20 59 164 65 211 5 39 2 56 -14 80 -46 75 -144 118 -250
112 -69 -4 -72 -5 -121 -53 -27 -27 -58 -65 -68 -85 -9 -19 -27 -53 -39 -75
-37 -69 -100 -206 -151 -330 -157 -380 -247 -583 -267 -604 -20 -20 -42 -7
-53 32 -5 18 -22 53 -37 77 -16 25 -76 139 -135 255 -59 116 -118 228 -132
250 -73 114 -174 146 -263 85 -36 -25 -52 -47 -89 -123 -24 -50 -56 -126 -70
-167 -14 -41 -37 -106 -51 -145 -14 -38 -31 -85 -36 -102 -8 -26 -15 -33 -36
-33 -81 0 -338 365 -468 665 -7 17 -22 51 -34 76 -12 25 -21 51 -21 58 0 6
-16 34 -35 61 -19 27 -35 54 -35 60 0 5 -10 15 -22 21 -12 6 -33 22 -46 35
-39 35 -130 64 -205 64 -36 0 -69 -4 -72 -10z"/>
<path d="M7465 2480 c-33 -4 -111 -13 -174 -19 -118 -12 -177 -31 -185 -59 -2
-10 -6 -456 -8 -992 -4 -1127 -14 -1018 101 -1044 103 -24 197 -21 246 7 l40
23 6 794 c7 844 12 925 53 956 26 18 117 18 180 -1 27 -8 63 -15 79 -15 20 0
52 -17 100 -52 57 -43 74 -62 95 -108 36 -81 40 -155 13 -235 -31 -90 -65
-138 -131 -183 -49 -34 -73 -42 -180 -63 -69 -13 -133 -31 -144 -40 l-21 -17
21 -24 c24 -27 64 -109 89 -186 19 -60 76 -172 105 -210 11 -13 20 -30 20 -36
0 -6 15 -34 33 -62 19 -28 37 -58 40 -68 7 -18 47 -81 118 -189 22 -32 39 -61
39 -65 0 -4 13 -22 30 -40 16 -18 35 -43 42 -55 13 -25 43 -60 113 -132 63
-65 113 -81 221 -71 41 4 87 12 102 17 67 26 183 195 144 211 -4 2 -34 35 -67
73 -32 39 -61 72 -65 75 -4 3 -60 72 -124 154 -65 81 -125 155 -133 165 -8 9
-45 57 -83 108 -66 88 -68 93 -57 123 6 17 29 49 49 71 21 23 38 45 38 51 0 5
12 22 28 37 33 33 122 210 122 243 0 13 7 45 15 72 40 133 4 331 -87 471 -66
103 -267 254 -336 255 -13 0 -33 5 -45 12 -68 36 -326 64 -442 48z"/>
<path d="M9680 2460 c-70 -22 -138 -74 -209 -159 -29 -35 -60 -71 -68 -79 -8
-8 -32 -38 -52 -66 -21 -28 -60 -76 -88 -106 -27 -30 -87 -102 -133 -160 -46
-58 -92 -113 -102 -123 -10 -10 -18 -22 -18 -27 0 -6 -9 -10 -20 -10 -20 0
-20 7 -20 324 0 178 -3 331 -6 340 -3 9 -22 25 -41 37 -31 19 -43 21 -116 15
-107 -9 -155 -24 -170 -52 -9 -17 -11 -230 -7 -886 5 -796 6 -866 23 -897 9
-19 17 -44 17 -57 0 -13 9 -28 20 -34 11 -6 22 -21 25 -33 9 -32 61 -59 130
-64 57 -5 61 -3 90 27 l30 31 -3 403 c-2 344 0 405 13 416 8 6 18 9 23 6 9 -5
92 -124 92 -131 0 -7 63 -88 94 -121 14 -16 26 -32 26 -35 0 -3 10 -17 23 -31
12 -13 49 -60 82 -103 33 -43 75 -95 93 -115 17 -21 32 -41 32 -46 0 -4 8 -17
19 -28 27 -31 128 -201 135 -230 10 -39 91 -114 133 -122 55 -10 166 30 226
83 46 41 87 44 116 7 11 -14 21 -30 23 -36 6 -16 189 -33 239 -22 33 7 47 17
63 43 18 31 20 61 26 415 7 401 10 425 53 427 12 1 182 0 377 -1 l355 -2 26
-25 c27 -24 27 -27 31 -181 5 -177 12 -210 88 -374 30 -66 152 -217 176 -218
6 0 31 -16 55 -35 24 -19 58 -39 74 -44 17 -5 62 -21 100 -35 117 -43 293 -34
395 18 14 7 36 16 50 19 14 4 44 22 67 42 23 19 45 35 50 35 19 0 107 96 157
171 67 98 100 189 120 320 13 89 16 212 16 741 l0 635 -23 22 c-18 16 -44 24
-98 30 -41 5 -85 13 -100 19 -32 13 -73 5 -94 -18 -14 -15 -16 -91 -18 -676
-4 -745 -3 -733 -77 -829 -23 -30 -48 -55 -55 -55 -7 0 -18 -6 -24 -14 -7 -8
-44 -22 -83 -32 -62 -15 -80 -15 -132 -5 -33 7 -79 24 -103 38 -54 31 -136
126 -154 178 -12 33 -14 155 -11 690 1 357 5 657 8 667 3 9 -2 30 -10 47 -13
24 -24 31 -62 37 -25 3 -367 5 -760 2 l-714 -4 -23 -22 -22 -23 -5 -886 c-4
-636 -8 -887 -16 -890 -6 -2 -38 29 -70 69 -32 40 -63 78 -70 83 -10 9 -130
148 -159 183 -5 7 -17 21 -26 30 -8 9 -46 55 -84 102 -37 47 -85 105 -106 130
-183 218 -257 310 -268 337 -12 29 -11 35 15 70 15 21 38 49 50 63 12 14 44
49 71 79 26 29 57 61 67 70 10 9 26 24 35 35 9 10 45 49 81 87 36 37 83 89
105 114 22 26 52 61 68 78 15 17 27 34 27 38 0 4 24 40 54 79 29 39 59 89 66
111 12 35 11 41 -6 60 -38 44 -133 62 -204 39z m1579 -367 c18 -16 22 -32 27
-123 7 -112 -8 -273 -27 -296 -9 -12 -86 -14 -425 -14 -481 0 -432 -14 -441
130 -6 87 11 264 28 291 9 15 145 20 615 27 180 2 204 0 223 -15z"/>
<path d="M5642 2424 c-57 -8 -117 -21 -132 -29 -16 -8 -37 -15 -47 -15 -10 0
-31 -9 -48 -20 -16 -11 -37 -20 -45 -20 -9 0 -39 -16 -69 -35 -29 -19 -55 -35
-58 -35 -10 0 -97 -73 -153 -130 -94 -93 -122 -132 -184 -257 -50 -103 -57
-119 -66 -154 -5 -19 -16 -59 -24 -89 -11 -40 -16 -98 -15 -210 1 -238 19
-322 115 -515 52 -104 210 -305 240 -305 6 0 20 -13 32 -30 13 -16 37 -36 55
-44 18 -8 47 -28 66 -45 18 -17 44 -31 56 -31 12 0 33 -8 46 -18 40 -29 92
-52 139 -61 25 -5 72 -16 105 -26 176 -49 508 -12 658 74 30 17 63 31 73 31
11 0 36 16 58 35 21 19 42 35 48 35 26 0 268 250 268 278 0 5 9 17 20 27 11
10 20 25 20 32 0 8 9 26 20 40 11 14 20 34 20 44 0 10 4 20 9 23 21 13 62 172
70 274 11 122 -2 328 -23 382 -8 19 -26 68 -42 108 -15 40 -33 77 -41 83 -7 6
-13 20 -13 30 0 10 -4 21 -10 24 -5 3 -26 32 -47 63 -58 88 -207 229 -318 302
-125 82 -137 89 -155 96 -8 3 -35 14 -60 24 -25 10 -63 25 -85 34 -50 20 -238
46 -319 45 -34 -1 -108 -8 -164 -15z m273 -478 c100 -21 170 -48 215 -85 21
-17 43 -31 49 -31 11 0 84 -86 123 -145 15 -22 41 -81 57 -131 74 -221 11
-451 -171 -620 -53 -50 -157 -105 -217 -115 -68 -11 -181 -13 -258 -4 -60 8
-152 45 -173 70 -7 8 -17 15 -23 15 -17 0 -112 82 -148 128 -39 50 -65 89 -78
117 -43 97 -46 110 -46 235 0 182 35 276 147 395 28 30 56 55 61 55 5 0 27 15
50 34 23 19 56 38 72 42 17 4 35 11 41 16 47 36 186 47 299 24z"/>
<path d="M13180 2424 c-161 -25 -278 -116 -353 -276 -47 -98 -61 -194 -54
-348 6 -110 8 -119 48 -198 35 -68 56 -96 124 -157 45 -41 87 -75 92 -75 5 0
22 -13 37 -29 16 -16 42 -35 60 -43 17 -7 53 -27 81 -45 27 -18 59 -33 71 -33
44 0 187 -119 234 -195 23 -36 25 -50 25 -145 -1 -102 -2 -106 -34 -153 -18
-27 -52 -60 -74 -75 -34 -23 -51 -27 -111 -27 -62 0 -77 4 -116 30 -53 34
-114 104 -182 208 -26 39 -57 75 -69 79 -33 13 -138 -9 -180 -36 -45 -30 -54
-61 -44 -155 10 -104 65 -199 173 -304 55 -53 67 -61 163 -109 115 -56 460
-60 559 -6 105 57 179 117 234 190 106 139 140 316 96 502 -32 135 -67 200
-160 296 -121 125 -296 245 -490 336 -66 31 -143 88 -171 127 -24 33 -29 50
-29 99 0 93 45 167 139 230 18 13 46 18 93 18 58 0 73 -4 110 -29 24 -16 53
-40 65 -53 122 -127 134 -136 198 -154 54 -14 69 -15 95 -4 47 19 62 50 63
127 0 61 -3 73 -32 115 -30 45 -179 188 -219 212 -92 54 -144 74 -217 85 -91
12 -119 12 -225 -5z"/>
<path d="M16791 2393 c-56 -39 -60 -140 -41 -1213 15 -872 11 -788 45 -818 28
-24 32 -24 140 -18 122 7 152 20 168 72 5 16 6 286 2 610 -3 319 -3 588 1 597
3 9 10 17 15 17 12 0 68 -62 69 -75 0 -5 17 -26 38 -46 20 -21 53 -56 72 -80
19 -23 51 -58 70 -78 35 -37 113 -128 180 -211 19 -24 49 -58 65 -77 32 -36
37 -43 202 -253 58 -74 111 -139 119 -143 8 -4 14 -13 14 -19 0 -6 17 -30 38
-53 20 -24 57 -72 82 -106 53 -76 113 -138 156 -163 44 -26 113 -15 160 26
l35 31 -5 121 c-2 67 -9 467 -15 889 l-10 769 -26 44 c-25 42 -65 71 -125 89
-14 4 -32 13 -40 20 -23 20 -118 25 -136 8 -12 -12 -14 -72 -14 -348 0 -301
-13 -654 -25 -713 -3 -12 -12 -22 -19 -22 -21 0 -123 103 -296 300 -85 96
-181 204 -215 240 -33 36 -92 101 -130 144 -39 43 -100 111 -136 150 -98 106
-121 134 -171 216 -26 42 -55 83 -65 92 -24 21 -173 22 -202 1z"/>
<path d="M14195 2389 c-5 -7 -8 -463 -8 -1012 1 -901 3 -1001 17 -1016 13 -12
38 -16 109 -16 115 0 232 33 241 69 4 18 6 301 8 1491 1 338 -2 431 -14 448
-16 21 -85 34 -230 43 -91 5 -117 4 -123 -7z"/>
<path d="M15443 2350 c-67 -12 -118 -30 -196 -69 -58 -29 -113 -61 -123 -72
-9 -10 -23 -19 -30 -19 -23 0 -211 -195 -255 -265 -65 -103 -69 -109 -75 -125
-3 -8 -13 -33 -24 -55 -58 -127 -87 -335 -70 -504 13 -130 17 -151 40 -223 24
-71 56 -133 92 -179 15 -20 28 -41 28 -47 0 -5 8 -16 17 -23 9 -8 39 -42 67
-75 61 -74 238 -234 259 -234 8 0 25 -8 38 -18 60 -45 234 -106 351 -122 136
-20 170 -16 427 57 54 15 123 52 136 73 3 5 15 10 26 10 21 0 192 145 240 204
35 42 92 125 107 156 6 14 16 32 20 40 11 19 36 73 58 125 76 184 83 423 17
625 -8 25 -18 61 -23 80 -5 19 -20 55 -34 80 -14 25 -31 56 -38 70 -22 46
-149 199 -211 256 -152 137 -323 221 -515 255 -135 23 -205 22 -329 -1z m289
-474 c31 -8 67 -21 80 -30 12 -9 31 -16 40 -16 40 0 180 -122 239 -208 57 -84
109 -237 109 -321 0 -62 -26 -165 -58 -226 -33 -65 -127 -161 -206 -210 -40
-25 -80 -45 -90 -45 -9 0 -31 -8 -49 -17 -26 -15 -57 -18 -158 -18 -74 0 -136
5 -150 11 -13 7 -50 25 -82 40 -102 49 -209 160 -260 269 -59 126 -75 311 -36
420 11 33 27 67 35 76 8 8 14 20 14 26 0 14 106 121 164 166 27 20 58 37 70
37 12 0 31 7 43 15 29 20 127 43 188 44 28 0 76 -6 107 -13z"/>
<path d="M7 1603 c-4 -3 -7 -366 -7 -805 l0 -798 23 0 22 0 -1 790 c-1 434 -4
797 -8 805 -6 16 -18 19 -29 8z"/>
</g>
</svg>
